<svg height="800" width="800" version="1.1" id="Layer_1" xmlns="http://www.w3.org/2000/svg" viewBox="0 0 64 64"
  xml:space="preserve">
  <style>
    .st4 {
      fill: none
    }
  </style>
  <circle cx="32" cy="32" r="32" style="fill:#f5cf87" />
  <path d="M32 14.4V32l12.3 13.2C57.5 27.6 41.7 14.4 32 14.4" style="fill:#e0995e" />
  <g style="opacity:.2">
    <path
      d="M32 10.5C19 10.5 8.5 21 8.5 34S19 57.5 32 57.5 55.5 47 55.5 34 45 10.5 32 10.5m20.4 22h-2c-.7-9-7.9-16.2-16.9-16.9v-2c10.1.7 18.2 8.8 18.9 18.9m-21.9 0H16.6c.7-7.4 6.6-13.2 13.9-13.9zm0 3v13.9c-7.4-.7-13.2-6.6-13.9-13.9zm3 0h13.9c-.7 7.4-6.6 13.2-13.9 13.9zm0-3V18.6c7.4.7 13.2 6.6 13.9 13.9zm-3-18.9v2c-9 .7-16.2 7.9-16.9 16.9h-2c.7-10.1 8.8-18.2 18.9-18.9M11.6 35.5h2c.7 9 7.9 16.2 16.9 16.9v2c-10.1-.7-18.2-8.8-18.9-18.9m21.9 18.9v-2c9-.7 16.2-7.9 16.9-16.9h2c-.7 10.1-8.8 18.2-18.9 18.9"
      style="fill:#231f20" />
  </g>
  <path class="st4"
    d="M30.5 47.4V33.5H16.6c.7 7.4 6.5 13.2 13.9 13.9m16.9-13.9H33.5v13.9c7.4-.7 13.2-6.5 13.9-13.9M33.5 16.6v13.9h13.9c-.7-7.4-6.5-13.2-13.9-13.9" />
  <path class="st4"
    d="M33.5 13.6c9 .7 16.2 7.9 16.9 16.9h2c-.7-10.1-8.8-18.2-18.9-18.9zM16.6 30.5h13.9V16.6c-7.4.7-13.2 6.5-13.9 13.9" />
  <path class="st4"
    d="M13.6 30.5c.7-9 7.9-16.2 16.9-16.9v-2c-10.1.7-18.2 8.8-18.9 18.9zm36.8 3c-.7 9-7.9 16.2-16.9 16.9v2c10.1-.7 18.2-8.8 18.9-18.9zM30.5 50.4c-9-.7-16.2-7.9-16.9-16.9h-2c.7 10.1 8.8 18.2 18.9 18.9z" />
  <path
    d="M32 8.5C19 8.5 8.5 19 8.5 32S19 55.5 32 55.5 55.5 45 55.5 32 45 8.5 32 8.5m20.4 22h-2c-.7-9-7.9-16.2-16.9-16.9v-2c10.1.7 18.2 8.8 18.9 18.9m-21.9 0H16.6c.7-7.4 6.6-13.2 13.9-13.9zm0 3v13.9c-7.4-.7-13.2-6.6-13.9-13.9zm3 0h13.9c-.7 7.4-6.6 13.2-13.9 13.9zm0-3V16.6c7.4.7 13.2 6.6 13.9 13.9zm-3-18.9v2c-9 .7-16.2 7.9-16.9 16.9h-2c.7-10.1 8.8-18.2 18.9-18.9M11.6 33.5h2c.7 9 7.9 16.2 16.9 16.9v2c-10.1-.7-18.2-8.8-18.9-18.9m21.9 18.9v-2c9-.7 16.2-7.9 16.9-16.9h2c-.7 10.1-8.8 18.2-18.9 18.9"
    style="fill:#4f5d73" />
</svg>